<?xml version="1.0" encoding="iso-8859-1"?>
<!-- Generator: Adobe Illustrator 21.0.0, SVG Export Plug-In . SVG Version: 6.00 Build 0)  -->
<svg version="1.1" id="Capa_1" xmlns="http://www.w3.org/2000/svg" xmlns:xlink="http://www.w3.org/1999/xlink" x="0px" y="0px"
	 viewBox="0 0 512 512" style="enable-background:new 0 0 512 512;" xml:space="preserve">
<linearGradient id="SVGID_1_" gradientUnits="userSpaceOnUse" x1="352.3809" y1="146.78" x2="397.3308" y2="191.73" gradientTransform="matrix(1.0039 0 0 -1.0039 0.1922 516.5593)">
	<stop  offset="0" style="stop-color:#A7F3CE"/>
	<stop  offset="1" style="stop-color:#61DB99"/>
</linearGradient>
<path style="fill:url(#SVGID_1_);" d="M502.78,502.779L502.78,502.779c-12.294,12.294-32.226,12.294-44.519,0L220.379,264.898
	c-12.294-12.294-12.294-32.226,0-44.519l0,0c12.294-12.294,32.226-12.294,44.519,0l237.882,237.88
	C515.073,470.553,515.073,490.485,502.78,502.779z"/>
<linearGradient id="SVGID_2_" gradientUnits="userSpaceOnUse" x1="292.1286" y1="273.1492" x2="200.7586" y2="273.1492" gradientTransform="matrix(1.0039 0 0 -1.0039 0.1922 516.5593)">
	<stop  offset="0" style="stop-color:#61DB99;stop-opacity:0"/>
	<stop  offset="1" style="stop-color:#009E74"/>
</linearGradient>
<path style="fill:url(#SVGID_2_);" d="M220.379,220.378L220.379,220.378c-12.294,12.294-12.293,32.226,0,44.519l8.623,8.623
	l0.44-0.011h88.588l-53.132-53.132C252.605,208.085,232.673,208.085,220.379,220.378z"/>
<linearGradient id="SVGID_3_" gradientUnits="userSpaceOnUse" x1="171.8287" y1="342.5223" x2="266.7387" y2="247.6124" gradientTransform="matrix(1.0039 0 0 -1.0039 0.1922 516.5593)">
	<stop  offset="0" style="stop-color:#A7F3CE"/>
	<stop  offset="1" style="stop-color:#61DB99"/>
</linearGradient>
<path style="fill:url(#SVGID_3_);" d="M334.532,193.376c-64.707,29.205-111.956,76.45-141.155,141.155
	c-43.511-43.511-87.021-87.021-130.532-130.532C127.548,174.799,174.8,127.553,204,62.844
	C247.511,106.354,291.021,149.865,334.532,193.376z"/>
<linearGradient id="SVGID_4_" gradientUnits="userSpaceOnUse" x1="218.2186" y1="250.4982" x2="21.9786" y2="250.4982" gradientTransform="matrix(1.0039 0 0 -1.0039 0.1922 516.5593)">
	<stop  offset="0" style="stop-color:#61DB99;stop-opacity:0"/>
	<stop  offset="1" style="stop-color:#009E74"/>
</linearGradient>
<path style="fill:url(#SVGID_4_);" d="M329.68,195.626H79.971c-5.568,2.936-11.274,5.731-17.128,8.373
	c43.511,43.511,87.021,87.021,130.532,130.532C221.84,271.456,267.463,224.981,329.68,195.626z"/>
<linearGradient id="SVGID_5_" gradientUnits="userSpaceOnUse" x1="76.3406" y1="195.2502" x2="159.5406" y2="278.4502" gradientTransform="matrix(1.0039 0 0 -1.0039 0.1922 516.5593)">
	<stop  offset="0" style="stop-color:#62E1FB"/>
	<stop  offset="1" style="stop-color:#00A2F3"/>
</linearGradient>
<path style="fill:url(#SVGID_5_);" d="M189.146,354.392l-30.301,30.301c-16.909,16.909-44.325,16.909-61.234,0l-84.928-84.928
	c-16.909-16.909-16.909-44.325,0-61.234l30.301-30.301c16.909-16.909,44.325-16.909,61.234,0l84.928,84.928
	C206.055,310.066,206.055,337.483,189.146,354.392z"/>
<linearGradient id="SVGID_6_" gradientUnits="userSpaceOnUse" x1="271.1306" y1="390.0402" x2="354.3206" y2="473.2302" gradientTransform="matrix(1.0039 0 0 -1.0039 0.1922 516.5593)">
	<stop  offset="0" style="stop-color:#62E1FB"/>
	<stop  offset="1" style="stop-color:#00A2F3"/>
</linearGradient>
<path style="fill:url(#SVGID_6_);" d="M384.694,158.844l-30.301,30.301c-16.909,16.909-44.325,16.909-61.234,0l-84.928-84.928
	c-16.909-16.909-16.909-44.325,0-61.234l30.301-30.301c16.909-16.909,44.325-16.909,61.234,0l84.928,84.928
	C401.603,114.519,401.603,141.934,384.694,158.844z"/>
<linearGradient id="SVGID_7_" gradientUnits="userSpaceOnUse" x1="77.3286" y1="58.5932" x2="219.9986" y2="58.5932" gradientTransform="matrix(1.0039 0 0 -1.0039 0.1922 516.5593)">
	<stop  offset="0" style="stop-color:#FFF465"/>
	<stop  offset="1" style="stop-color:#FFE600"/>
</linearGradient>
<path style="fill:url(#SVGID_7_);" d="M197.601,475.824H40.63v-6.154c0-16.581,13.442-30.021,30.021-30.021h96.928
	c16.581,0,30.021,13.442,30.021,30.021v6.154H197.601z"/>
<linearGradient id="SVGID_8_" gradientUnits="userSpaceOnUse" x1="56.0386" y1="22.5592" x2="272.5586" y2="22.5592" gradientTransform="matrix(1.0039 0 0 -1.0039 0.1922 516.5593)">
	<stop  offset="0" style="stop-color:#FFF465"/>
	<stop  offset="1" style="stop-color:#FFE600"/>
</linearGradient>
<path style="fill:url(#SVGID_8_);" d="M235.154,511.999H3.077c-1.7,0-3.077-1.377-3.077-3.077l0,0
	c0-18.279,14.819-33.098,33.098-33.098h172.033c18.279,0,33.098,14.819,33.098,33.098l0,0
	C238.231,510.622,236.852,511.999,235.154,511.999z"/>
<linearGradient id="SVGID_9_" gradientUnits="userSpaceOnUse" x1="118.4586" y1="55.7022" x2="118.4586" y2="38.8722" gradientTransform="matrix(1.0039 0 0 -1.0039 0.1922 516.5593)">
	<stop  offset="0" style="stop-color:#FFE600;stop-opacity:0"/>
	<stop  offset="1" style="stop-color:#F59500"/>
</linearGradient>
<path style="fill:url(#SVGID_9_);" d="M40.63,469.67v6.154h156.971v-6.154c0-6.489-2.066-12.493-5.567-17.403H46.195
	C42.696,457.177,40.63,463.181,40.63,469.67z"/>
<g>
</g>
<g>
</g>
<g>
</g>
<g>
</g>
<g>
</g>
<g>
</g>
<g>
</g>
<g>
</g>
<g>
</g>
<g>
</g>
<g>
</g>
<g>
</g>
<g>
</g>
<g>
</g>
<g>
</g>
</svg>
