<svg id="Capa_1" enable-background="new 0 0 512 512" height="512" viewBox="0 0 512 512" width="512" xmlns="http://www.w3.org/2000/svg"><g><circle cx="160.399" cy="303.946" fill="#01c0fa" r="127.855"/><path d="m287.199 287.485c-1.358-10.519-3.999-20.642-7.762-30.206-.179-.188-.361-.374-.545-.559-12.483-12.483-32.721-12.483-45.203 0l-67.805 67.805-33.903-33.903c-12.483-12.483-32.721-12.483-45.203 0-12.483 12.483-12.483 32.721 0 45.204l56.504 56.504c12.483 12.483 32.721 12.483 45.203 0l90.407-90.407c4.147-4.146 6.915-9.148 8.307-14.438z" fill="#08a9f1"/><path d="m195.902 181.105c31.064 23.347 51.192 60.497 51.192 102.26 0 70.499-57.355 127.855-127.855 127.855-12.314 0-24.226-1.75-35.503-5.014 21.375 16.065 47.927 25.595 76.663 25.595 70.499 0 127.855-57.355 127.855-127.855 0-58.186-39.07-107.418-92.352-122.841z" fill="#08a9f1"/><path d="m233.688 236.14-67.805 67.805-33.903-33.903c-12.483-12.483-32.721-12.483-45.203 0-12.483 12.483-12.483 32.721 0 45.203l56.504 56.504c12.483 12.483 32.721 12.483 45.203 0l90.407-90.407c12.483-12.483 12.483-32.721 0-45.203-12.482-12.481-32.72-12.481-45.203.001z" fill="#05e39c"/><path d="m278.892 236.14c-6.493-6.493-15.084-9.608-23.59-9.346 4.33 11.403 1.904 24.785-7.28 33.969l-90.407 90.407c-7.031 7.031-16.521 10.101-25.701 9.212l11.368 11.368c12.483 12.483 32.721 12.483 45.203 0l90.407-90.407c12.483-12.482 12.483-32.72 0-45.203z" fill="#0ed290"/><path d="m496.565 176.091h-256.257l-15.982-31.964 15.982-15.982h256.256c8.525 0 15.435 6.911 15.435 15.435v17.075c.001 8.525-6.91 15.436-15.434 15.436z" fill="#b2caec"/><path d="m195.105 176.637v-49.039c0-8.525-6.911-15.435-15.435-15.435h-164.235c-8.524 0-15.435 6.911-15.435 15.435v49.039c0 8.525 6.911 15.435 15.435 15.435h164.235c8.524.001 15.435-6.91 15.435-15.435z" fill="#0067c5"/><path d="m179.67 112.163h-25.725v23.406c0 19.84-16.083 35.923-35.923 35.923h-118.022v5.145c0 8.525 6.911 15.435 15.435 15.435h164.235c8.525 0 15.435-6.911 15.435-15.435v-49.039c0-8.524-6.911-15.435-15.435-15.435z" fill="#0055a3"/><path d="m195.105 176.637v-49.039c0-8.525 6.911-15.435 15.435-15.435h14.333c8.525 0 15.435 6.911 15.435 15.435v49.039c0 8.525-6.911 15.435-15.435 15.435h-14.333c-8.525.001-15.435-6.91-15.435-15.435z" fill="#0067c5"/><path d="m336.199 48.236h127.855v207.764h-127.855z" fill="#fed402"/><path d="m464.601 224.036h-128.948c-8.525 0-15.435-6.911-15.435-15.435v-112.966c0-8.525 6.911-15.435 15.435-15.435h128.948c8.525 0 15.435 6.911 15.435 15.435v112.966c0 8.525-6.91 15.435-15.435 15.435z" fill="#fe9738"/><path d="m464.601 80.199h-25.725v71.18c0 28.761-23.315 52.076-52.076 52.076h-66.582v5.145c0 8.525 6.911 15.435 15.435 15.435h128.948c8.525 0 15.435-6.911 15.435-15.435v-112.965c0-8.525-6.91-15.436-15.435-15.436z" fill="#fe860a"/><path d="m464.601.29h-128.948c-8.525 0-15.435 6.911-15.435 15.435v17.075c0 8.525 6.911 15.435 15.435 15.435h128.948c8.525 0 15.435-6.911 15.435-15.435v-17.075c0-8.524-6.91-15.435-15.435-15.435z" fill="#fe9738"/><path d="m464.601 256h-128.948c-8.525 0-15.435 6.911-15.435 15.435v17.075c0 8.525 6.911 15.435 15.435 15.435h128.948c8.525 0 15.435-6.911 15.435-15.435v-17.075c0-8.524-6.91-15.435-15.435-15.435z" fill="#fe9738"/><path d="m288.254 463.764h-239.728v-22.22c0-14.208 11.518-25.725 25.725-25.725h188.277c14.208 0 25.725 11.518 25.725 25.725v22.22z" fill="#0067c5"/><path d="m262.529 415.819h-15.95c.337 1.662.515 3.383.515 5.145v5.878c0 9.025-7.317 16.342-16.342 16.342h-182.226v20.58h239.728v-22.22c0-14.208-11.518-25.725-25.725-25.725z" fill="#0055a3"/><path d="m294.492 463.764h-252.204c-14.208 0-25.725 11.518-25.725 25.725v12.22c0 5.523 4.477 10 10 10h283.655c5.523 0 10-4.477 10-10v-12.22c0-14.207-11.518-25.725-25.726-25.725z" fill="#fe9738"/><path d="m294.492 463.764h-15.95c.337 1.662.515 3.383.515 5.145v5.147c0 9.429-7.644 17.073-17.073 17.073h-245.422v10.58c0 5.523 4.477 10 10 10h283.655c5.523 0 10-4.477 10-10v-12.22c.001-14.207-11.517-25.725-25.725-25.725z" fill="#fe860a"/><path d="m40.693 112.163h15v79.909h-15z" fill="#0055a3"/><path d="m40.693 171.492h15v20.58h-15z" fill="#004281"/></g></svg>