<svg clip-rule="evenodd" fill-rule="evenodd" height="512" stroke-linejoin="round" stroke-miterlimit="2" viewBox="0 0 48 48" width="512" xmlns="http://www.w3.org/2000/svg" xmlns:xlink="http://www.w3.org/1999/xlink"><linearGradient id="lg1"><stop offset="0" stop-color="#fff33b"/><stop offset=".01" stop-color="#fff33b"/><stop offset="1" stop-color="#e93e3a"/></linearGradient><linearGradient id="_Linear1" gradientTransform="matrix(35.087 -32.97 32.97 35.087 141.08 107.861)" gradientUnits="userSpaceOnUse" x1="0" x2="1" xlink:href="#lg1" y1="0" y2="0"/><linearGradient id="_Linear2" gradientTransform="matrix(35.087 -32.97 32.97 35.087 345.08 107.861)" gradientUnits="userSpaceOnUse" x1="0" x2="1" xlink:href="#lg1" y1="0" y2="0"/><g transform="translate(0 -53)"><g id="ngicon" transform="translate(28.924 4.644)"><g transform="translate(-28.924 48.356)"><g transform="translate(-136 -68)"><path d="m143.257 95.863c-1.991 1.677-3.257 4.189-3.257 6.994 0 5.046 4.097 9.143 9.143 9.143 2.805 0 5.317-1.266 6.994-3.257h16.349c1.993 0 3.904-.792 5.313-2.201s2.201-3.321 2.201-5.313v-21.715c0-1.993-.792-3.904-2.201-5.313s-3.32-2.201-5.313-2.201h-21.715c-1.992 0-3.904.792-5.313 2.201s-2.201 3.32-2.201 5.313zm5.886-.149c3.942 0 7.143 3.201 7.143 7.143s-3.201 7.143-7.143 7.143-7.143-3.201-7.143-7.143 3.201-7.143 7.143-7.143zm5.086-21.714h-3.458c-1.462 0-2.865.581-3.899 1.615s-1.615 2.437-1.615 3.899v15.066c1.179-.555 2.497-.866 3.886-.866 5.046 0 9.143 4.097 9.143 9.143 0 1.389-.311 2.707-.866 3.886h15.066c1.462 0 2.865-.581 3.899-1.615s1.615-2.437 1.615-3.899v-21.715c0-1.462-.581-2.865-1.615-3.899s-2.437-1.615-3.899-1.615h-3.457v8.967c0 .942-.502 1.814-1.317 2.287-.816.473-1.821.476-2.639.009 0 0-3.444-1.968-3.444-1.968s-3.444 1.968-3.444 1.968c-.819.467-1.824.464-2.639-.009-.816-.473-1.317-1.345-1.317-2.287zm10.942 28.8h8.8c.552 0 1-.448 1-1s-.448-1-1-1h-8.8c-.551 0-1 .448-1 1s.449 1 1 1zm0-5.257h8.8c.552 0 1-.448 1-1s-.448-1-1-1h-8.8c-.551 0-1 .448-1 1s.449 1 1 1zm-8.942-23.543h10.8v8.967c0 .23-.123.442-.321.557-.199.115-.444.116-.643.002l-3.94-2.251c-.308-.176-.685-.176-.993 0l-3.94 2.251c-.199.114-.444.113-.643-.002-.198-.115-.32-.327-.32-.557z" fill="url(#_Linear1)"/></g><g transform="translate(-340 -68)"><path d="m352.261 103.329c.075.141.185.266.327.36l3.257 2.172c.46.306 1.081.181 1.387-.278s.182-1.08-.277-1.386l-2.812-1.875v-4.351c0-.551-.448-1-1-1s-1 .449-1 1v4.886c0 .171.043.331.118.472z" fill="url(#_Linear2)"/></g></g></g></g></svg>