<svg clip-rule="evenodd" fill-rule="evenodd" height="256" image-rendering="optimizeQuality" shape-rendering="geometricPrecision" text-rendering="geometricPrecision" viewBox="0 0 45169 45169" width="256" xmlns="http://www.w3.org/2000/svg"><g id="Layer_x0020_1"><path d="m6604 41252h2265c2591 0 2591-3916 0-3916h-6136c-2590 0-2590-3917 0-3917h6011c2591 0 2591-3916 0-3916h-2158c-2591 0-2591-3917 0-3917h10753 3825 5831c2591 0 2591 3917 0 3917h-1079c-2591 0-2591 3916 0 3916h2943c2591 0 2591 3917 0 3917h-3068c-2591 0-2591 3916 0 3916h943c2591 0 2591 3917 0 3917h-5570-3825-10735c-2591 0-2591-3917 0-3917z" fill="#e6e6e6"/><path d="m18323 25586h20168c2591 0 2590 3917 0 3917h-2011c-2737 0-2979 3916 300 3916h5656c2590 0 2590 3917 0 3917h-8148c-2591 0-2591 3916 0 3916h1972c2590 0 2590 3917 0 3917h-17937-1081c-2591 0-2591-3917 0-3917h1081c2607 0 2716-3916 0-3916h-4613c-2591 0-2591-3917 0-3917h3343c2868 88 3208-3916 0-3916h-2042c-2591 0-2591-3917 0-3917zm22694 15666h-12c-1077 0-1958 881-1958 1958v1c0 1077 881 1958 1958 1958h12c1077 0 1958-881 1958-1958v-1c0-1077-881-1958-1958-1958z" fill="#c2c2c2"/><path d="m0 0h45169v45169h-45169z" fill="none"/><path d="m6699 3639h-183c-2426 0-4411 1985-4411 4411v4101h9002l2-4102c1-2425-1984-4410-4410-4410z" fill="#fff"/><path d="m6680 4529h-145c-1919 0-3489 1570-3489 3489v3244h7120l2-3245c1-1918-1569-3488-3488-3488z" fill="#e1e1e1"/><path d="m6699 3639h23179c2425 0 4409 1985 4409 4410v31813h-23192l14-31813c1-2425-1984-4410-4410-4410z" fill="#fff"/><path d="m12042 38916h21299v-30867c0-1903-1560-3463-3463-3463h-19099c796 935 1277 2145 1277 3464z" fill="#e1e1e1"/><g fill="none" stroke="#105286" stroke-width="705.76"><path d="m11105 15427 4-7378c1-2425-1984-4410-4410-4410h23179c2425 0 4409 1985 4409 4410v31813h-23192l6-15130"/><path d="m6699 3639c-2527 0-4594 1829-4594 4411v4101h9002"/><path d="m16357 12678h15606"/><path d="m16357 14617h15606"/><path d="m16357 16557h15606"/><path d="m16357 18497h7215"/><path d="m42724 926 419 420m1144-420-420 420m-724 724-419 419m1143-419 420 419"/><path d="m1302 926 420 420m1143-420-419 420m-724 724-420 419m1144-419 419 419"/><circle r="1009" transform="matrix(.502 -.551 .551 .502 1971.15 30221)"/><path d="m1491 41033 420 419m1143-419-419 420m-724 723-420 420m1144-420 419 420"/><path d="m16357 22511h15606"/><path d="m16357 24451h15606"/><path d="m16357 26390h15606"/><path d="m16357 28330h7215"/><path d="m16357 6586h4852"/><path d="m16357 8174h9881"/></g><circle cx="34287" cy="33141" fill="#fff" r="4477"/><circle cx="34287" cy="33141" fill="none" r="4477" stroke="#105286" stroke-width="705.76"/><circle cx="34287" cy="33141" fill="#ffd027" r="3622"/><g id="_531942832" fill="none" stroke="#105286" stroke-width="705.76"><path d="m33211 34728c249 564 720 749 1246 662 1018-169 1319-1670 166-2111l-672-284c-1152-440-851-1942 167-2111 526-87 996 98 1245 662"/><path d="m34287 29998v875"/><path d="m34287 35442v875"/></g><path d="m15505 36299h5759" fill="none" stroke="#105286" stroke-width="705.76"/><circle fill="none" r="1009" stroke="#105286" stroke-width="705.76" transform="matrix(.502 -.551 .551 .502 43549.6 25665.3)"/><path d="m37116 3234h2931v14147l-886 4274h-1159l-886-4274z" fill="#fff"/><path d="m37660 939h1844v2294h-1844z" fill="#fff"/><path d="m40047 4428 695 41c400 23 710 337 710 718v6267" fill="none" stroke="#105286" stroke-width="705.76"/><path d="m38582 21655v1968" fill="none" stroke="#105286" stroke-width="705.76"/><path d="m37116 3234h2931v14147l-886 4274h-1159l-886-4274z" fill="none" stroke="#105286" stroke-width="705.76"/><path d="m37660 939h1844v2294h-1844z" fill="none" stroke="#105286" stroke-width="705.76"/><path d="m37848 3892h1467v13381l-633 3584h-166l-668-3584z" fill="#ff576b"/><path d="m38252 1557h658v1097h-658z" fill="#00dcab"/><circle cx="11240" cy="25277" fill="#fff" r="6800"/><path d="m5299 14886 589 589m1604-589-589 589m-1015 1016-589 588m1604-588 589 588" fill="none" stroke="#105286" stroke-width="705.76"/><circle cx="11240" cy="25277" fill="none" r="6800" stroke="#105286" stroke-width="705.76"/><circle cx="11240" cy="25277" fill="#00dcab" r="5391"/><path d="m9142 21939 2098 3338 2522-1211" fill="none" stroke="#105286" stroke-linecap="round" stroke-linejoin="round" stroke-width="705.76"/><path d="m41367 20034 589 588m1604-588-589 589m-1015 1015-589 589m1604-589 589 589" fill="none" stroke="#105286" stroke-width="705.76"/><circle fill="none" r="1009" stroke="#105286" stroke-width="705.76" transform="matrix(.502 -.551 .551 .502 23850 1152.22)"/><path d="m40249 38191 589 588m1604-588-588 588m-1016 1016-589 589m1605-589 588 589" fill="none" stroke="#105286" stroke-width="705.76"/></g></svg>