<svg id="Layer_1" enable-background="new 0 0 512 512" viewBox="0 0 512 512" xmlns="http://www.w3.org/2000/svg"><g><path d="m199.72 264.28c-4.56 0-8.25-3.71-8.25-8.28 0-4.56 3.69-8.25 8.25-8.25h91.45v-197.06c0-4.56 3.69-8.25 8.25-8.25h109.25c4.56 0 8.25 3.69 8.25 8.25s-3.68 8.25-8.25 8.25h-100.98v188.82h100.97c4.56 0 8.25 3.69 8.25 8.25s-3.68 8.28-8.25 8.28h-100.97v188.79h100.97c4.56 0 8.25 3.71 8.25 8.28s-3.68 8.25-8.25 8.25h-109.25c-4.56 0-8.25-3.69-8.25-8.25v-197.08z" fill="#70da40"/><g clip-rule="evenodd" fill-rule="evenodd"><path d="m199.86 325.39c0 26.11-44.28 47.25-98.93 47.25-54.62.01-98.93-21.14-98.93-47.25v-138.78h197.86z" fill="#fea832"/><path d="m24.45 355.38c-14.03-8.16-22.45-18.59-22.45-29.99v-138.78h22.45z" fill="#e5972d"/><path d="m199.86 256.31c0 26.11-44.28 47.25-98.93 47.25-54.62.01-98.93-21.14-98.93-47.25v-69.7h197.86z" fill="#ffd75c"/><path d="m24.45 286.27c-14.03-8.13-22.45-18.59-22.45-29.96v-69.7h22.45z" fill="#e6c253"/><path d="m100.93 233.86c54.48 0 98.93-21.23 98.93-47.25s-44.45-47.25-98.93-47.25c-54.48-.01-98.93 21.23-98.93 47.25s44.45 47.25 98.93 47.25z" fill="#fea832"/><path d="m100.93 139.35c3.09 0 6.15.08 9.18.23-50.34 2.21-89.77 22.42-89.77 47.03 0 24.63 39.43 44.84 89.77 47.06-3.03.11-6.09.2-9.18.2-54.62-.01-98.93-21.16-98.93-47.26 0-26.08 44.31-47.26 98.93-47.26z" fill="#e5972d"/><path d="m414.58 0h89.52c3.23 0 5.9 2.66 5.9 5.92v89.52c0 3.23-2.66 5.9-5.9 5.9h-89.52c-3.26 0-5.92-2.66-5.92-5.9v-89.51c0-3.26 2.66-5.93 5.92-5.93z" fill="#ff4155"/><path d="m414.58 205.34h89.52c3.23 0 5.9 2.66 5.9 5.92v89.49c0 3.26-2.66 5.92-5.9 5.92h-89.52c-3.26 0-5.92-2.66-5.92-5.92v-89.49c0-3.25 2.66-5.92 5.92-5.92z" fill="#ff4155"/><path d="m414.58 410.66h89.52c3.23 0 5.9 2.66 5.9 5.92v89.49c0 3.26-2.66 5.92-5.9 5.92h-89.52c-3.26 0-5.92-2.66-5.92-5.92v-89.49c0-3.26 2.66-5.92 5.92-5.92z" fill="#ff4155"/><path d="m414.58 0h12.39c-3.26 0-5.92 2.66-5.92 5.92v89.52c0 3.23 2.66 5.9 5.92 5.9h-12.39c-3.26 0-5.92-2.66-5.92-5.9v-89.51c0-3.26 2.66-5.93 5.92-5.93z" fill="#e63b4d"/><path d="m414.58 205.34h12.39c-3.26 0-5.92 2.66-5.92 5.92v89.49c0 3.26 2.66 5.92 5.92 5.92h-12.39c-3.26 0-5.92-2.66-5.92-5.92v-89.49c0-3.25 2.66-5.92 5.92-5.92z" fill="#e63b4d"/><path d="m414.58 410.66h12.39c-3.26 0-5.92 2.66-5.92 5.92v89.49c0 3.26 2.66 5.92 5.92 5.92h-12.39c-3.26 0-5.92-2.66-5.92-5.92v-89.49c0-3.26 2.66-5.92 5.92-5.92z" fill="#e63b4d"/></g></g></svg>