<svg xmlns="http://www.w3.org/2000/svg" version="1.1" xmlns:xlink="http://www.w3.org/1999/xlink" width="512" height="512" x="0" y="0" viewBox="0 0 64 64" style="enable-background:new 0 0 512 512" xml:space="preserve" class=""><g><path fill="#9eefc8" d="M55 34H9a2 2 0 0 1-2-2V4a2 2 0 0 1 2-2h46a2 2 0 0 1 2 2v28a2 2 0 0 1-2 2z" opacity="1" data-original="#99e1ff" class=""></path><path fill="#4d4d4d" d="M52 30H40v-2a2 2 0 0 1 2-2h8a2 2 0 0 1 2 2z" opacity="1" data-original="#4d4d4d"></path><path fill="#e8e8e8" d="m23.1 9.825 7.07 7.07-5.655 5.656-7.07-7.07z" opacity="1" data-original="#e8e8e8"></path><g fill="#ef476f"><path d="m33.707 17.607-2.121-2.121-8.485 8.485 2.121 2.121a.999.999 0 0 0 1.414 0l7.071-7.071a.999.999 0 0 0 0-1.414zM16.029 16.899l8.485-8.485-2.121-2.121a.999.999 0 0 0-1.414 0l-7.071 7.071a.999.999 0 0 0 0 1.414zM11.076 26.09l8.484-8.484 2.828 2.828-8.484 8.484z" fill="#ef476f" opacity="1" data-original="#ef476f"></path></g><circle cx="22" cy="54" r="8" fill="#ffed80" opacity="1" data-original="#ffed80" class=""></circle><path fill="#36c96c" d="M12.482 48.056 5.513 48C3.577 47.985 2 49.519 2 51.417V62h14V51.983c-.062-2.386-1.605-3.912-3.518-3.927z" opacity="1" data-original="#2e6893" class=""></path><path fill="#e8e8e8" d="m9 48-2 6 2 3 2-3z" opacity="1" data-original="#e8e8e8"></path><circle cx="9" cy="43" r="5" fill="#ffcd94" opacity="1" data-original="#ffcd94" class=""></circle><path fill="#3f3f3f" d="M9.01 41c1.12 1.23 2.71 2 4.46 2 .179 0 .359-.01.528-.02a4.998 4.998 0 0 0-9.995-.01c.179.02.358.03.547.03 1.75 0 3.34-.77 4.46-2z" opacity="1" data-original="#3f3f3f" class=""></path><path fill="#999999" d="M22 53c-.551 0-1-.449-1-1s.449-1 1-1 1 .449 1 1h2a2.996 2.996 0 0 0-2-2.816V48h-2v1.184A2.996 2.996 0 0 0 19 52c0 1.654 1.346 3 3 3 .551 0 1 .449 1 1s-.449 1-1 1-1-.449-1-1h-2c0 1.302.839 2.402 2 2.816V60h2v-1.184A2.996 2.996 0 0 0 25 56c0-1.654-1.346-3-3-3z" opacity="1" data-original="#999999" class=""></path><circle cx="54" cy="54" r="8" fill="#ffed80" opacity="1" data-original="#ffed80" class=""></circle><path fill="#36c96c" d="M44.482 48.056 37.513 48C35.577 47.985 34 49.519 34 51.417V62h14V51.983c-.062-2.386-1.605-3.912-3.518-3.927z" opacity="1" data-original="#2e6893" class=""></path><path fill="#e8e8e8" d="m41 48-2 6 2 3 2-3z" opacity="1" data-original="#e8e8e8"></path><circle cx="41" cy="43" r="5" fill="#ffcd94" opacity="1" data-original="#ffcd94" class=""></circle><path fill="#3f3f3f" d="M41.01 41c1.12 1.23 2.71 2 4.46 2 .179 0 .359-.01.528-.02a4.998 4.998 0 0 0-9.995-.01c.179.02.358.03.547.03 1.75 0 3.34-.77 4.46-2z" opacity="1" data-original="#3f3f3f" class=""></path><path fill="#999999" d="M54 53c-.551 0-1-.449-1-1s.449-1 1-1 1 .449 1 1h2a2.996 2.996 0 0 0-2-2.816V48h-2v1.184A2.996 2.996 0 0 0 51 52c0 1.654 1.346 3 3 3 .551 0 1 .449 1 1s-.449 1-1 1-1-.449-1-1h-2c0 1.302.839 2.402 2 2.816V60h2v-1.184A2.996 2.996 0 0 0 57 56c0-1.654-1.346-3-3-3z" opacity="1" data-original="#999999" class=""></path><path fill="#3dad88" d="M45 17h2v4h-2zM49.457 22.124l2.828-2.828 1.414 1.414-2.828 2.828zM38.286 20.709l1.414-1.414 2.828 2.828-1.414 1.414z" opacity="1" data-original="#204866" class=""></path></g></svg>