<svg id="Layer_1" height="512" viewBox="0 0 512 512" width="512" xmlns="http://www.w3.org/2000/svg" xmlns:xlink="http://www.w3.org/1999/xlink" data-name="Layer 1"><linearGradient id="linear-gradient" gradientUnits="userSpaceOnUse" x1="256" x2="256" y1="493.347" y2="18.653"><stop offset="0" stop-color="#8d3fff"/><stop offset="1" stop-color="#00b4d1"/></linearGradient><path d="m505.49 302.372c-.967-3.363-3.113-6.006-6.205-7.644l-16.143-8.551c.009-.603.027-1.203.027-1.808 0-61.929-49.058-112.608-110.352-115.236v-73.555c0-1.326-.527-2.598-1.464-3.535l-71.924-71.926c-.938-.938-2.209-1.464-3.536-1.464h-284.893c-2.761 0-5 2.239-5 5v464.694c0 2.761 2.239 5 5 5h356.818c2.761 0 5-2.239 5-5v-88.737c23.378-.986 45.505-8.883 64.271-22.997 18.095-13.609 31.981-32.575 39.507-53.802l4.755 2.982c2.053 1.287 4.295 1.94 6.608 1.939 1.027 0 2.069-.129 3.113-.388 3.396-.844 6.117-2.892 7.866-5.922l5.356-9.278c1.75-3.03 2.163-6.409 1.196-9.772zm-204.596-266.648 54.853 54.854h-54.853zm-284.894 447.623v-454.694h274.894v66.925c0 2.761 2.239 5 5 5h66.924v68.556c-61.293 2.628-110.351 53.308-110.351 115.236s49.058 112.608 110.351 115.237v83.741h-346.818zm351.819-93.626c-58.091 0-105.352-47.26-105.352-105.352s47.26-105.351 105.352-105.351c56.917 0 103.429 45.37 105.287 101.842l-60.564-32.08c2.198-2.856 4.542-5.601 7.021-8.23 2.903-.09 5.698-1.621 7.255-4.315l4.431-7.675c1.575-2.726 1.991-5.909 1.173-8.961-.818-3.053-2.77-5.601-5.496-7.175l-27.931-16.126c-2.726-1.574-5.908-1.991-8.962-1.173-3.053.818-5.601 2.77-7.175 5.496l-4.432 7.676c-1.556 2.696-1.486 5.885-.111 8.444-4.84 16.145-13.425 31.014-24.987 43.279-2.905.089-5.702 1.623-7.258 4.319l-4.432 7.675c-1.574 2.726-1.991 5.909-1.172 8.961.818 3.053 2.77 5.601 5.496 7.175l27.932 16.126c1.855 1.071 3.883 1.58 5.886 1.58 4.085 0 8.064-2.119 10.25-5.903l4.432-7.676c1.556-2.695 1.486-5.884.111-8.444 1.037-3.46 2.242-6.862 3.616-10.192l69.697 43.705c-14.251 43.381-54.161 72.373-100.066 72.373zm-13.755-119.229 31.071 17.939-3.766 6.523c-.491.851-1.626 1.153-2.476.663l-27.932-16.126c-.557-.322-.763-.829-.837-1.103-.073-.274-.148-.816.173-1.373s3.766-6.523 3.766-6.523zm32.045 6.954-23.02-13.29c10.561-11.929 18.638-25.919 23.688-41.028l23.019 13.29c-10.56 11.928-18.637 25.918-23.687 41.028zm32.713-47.364-31.072-17.939 3.766-6.523c.322-.557.829-.763 1.103-.837.274-.073.816-.148 1.374.174l27.932 16.126c.557.322.763.829.837 1.103.073.274.148.816-.174 1.374l-3.766 6.523zm76.812 77.061-5.356 9.278c-.39.676-.858 1.028-1.617 1.217-.756.188-1.335.096-1.998-.319l-84.203-52.802c1.339-2.548 2.779-5.042 4.316-7.475l87.829 46.521c.69.365 1.06.821 1.275 1.571.216.75.145 1.333-.246 2.008zm-160.34 4.702c-7.962 0-14.44 6.478-14.44 14.44v4.634c-7.804 1.289-13.782 8.065-13.782 16.229v11.826c0 2.761 2.239 5 5 5h111.491c2.761 0 5-2.239 5-5v-11.826c0-8.163-5.978-14.94-13.782-16.229v-4.634c0-7.962-6.478-14.44-14.44-14.44h-65.048zm83.27 35.303v6.826h-101.491v-6.826c0-3.566 2.901-6.468 6.468-6.468h88.556c3.566 0 6.468 2.901 6.468 6.468zm-13.782-20.863v4.395h-73.928v-4.395c0-2.448 1.992-4.44 4.44-4.44h65.048c2.448 0 4.44 1.992 4.44 4.44zm-318.452 20.995h154.703c2.761 0 5 2.239 5 5s-2.239 5-5 5h-154.703c-2.761 0-5-2.239-5-5s2.239-5 5-5zm140.745-65.177c2.761 0 5 2.239 5 5s-2.239 5-5 5h-68.839c-2.761 0-5-2.239-5-5s2.239-5 5-5zm-34.383-32.589h41.141c2.761 0 5 2.239 5 5s-2.239 5-5 5h-41.141c-2.761 0-5-2.239-5-5s2.239-5 5-5zm-55.855 32.589c2.761 0 5 2.239 5 5s-2.239 5-5 5h-6.643c-2.761 0-5-2.239-5-5s2.239-5 5-5zm-20.301 102.766c0 2.761-2.239 5-5 5h-57.948c-2.761 0-5-2.239-5-5s2.239-5 5-5h57.948c2.761 0 5 2.239 5 5zm-67.948-32.589c0-2.761 2.239-5 5-5h6.644c2.761 0 5 2.239 5 5s-2.239 5-5 5h-6.644c-2.761 0-5-2.239-5-5zm220.829 32.589c0 2.761-2.239 5-5 5h-126.783c-2.761 0-5-2.239-5-5s2.239-5 5-5h126.783c2.761 0 5 2.239 5 5zm-220.829-97.765c0-2.761 2.239-5 5-5h51.843c2.761 0 5 2.239 5 5s-2.239 5-5 5h-51.843c-2.761 0-5-2.239-5-5zm0 32.589c0-2.761 2.239-5 5-5h175.087c2.761 0 5 2.239 5 5s-2.239 5-5 5h-175.087c-2.761 0-5-2.239-5-5zm0-65.178c0-2.761 2.239-5 5-5h118.163c2.761 0 5 2.239 5 5s-2.239 5-5 5h-118.163c-2.761 0-5-2.239-5-5zm2.5-66.478 67.596 39.027c.773.446 1.637.67 2.5.67s1.727-.224 2.5-.67l67.596-39.027c1.547-.893 2.5-2.544 2.5-4.33v-78.052c0-1.786-.953-3.437-2.5-4.33l-67.596-39.027c-1.547-.894-3.453-.893-5 0l-67.596 39.027c-1.547.893-2.5 2.544-2.5 4.33v78.053c0 1.786.953 3.437 2.5 4.33zm7.5-73.722 13.916 8.034v30.32c0 1.546.715 3.005 1.937 3.952 1.223.947 2.814 1.274 4.311.89l6.545-1.687 7.891 11.144c.955 1.349 2.49 2.111 4.081 2.111.505 0 1.016-.077 1.516-.236 2.075-.66 3.484-2.587 3.484-4.765v-24.546l13.917 8.035v66.506l-57.596-33.254v-66.503zm62.596 24.593-13.917-8.035 57.596-33.253 13.916 8.034-57.596 33.253zm-23.917-13.808-9.764-5.637 57.596-33.253 9.764 5.637zm-5 8.66v14.606l-.801-1.132c-1.199-1.693-3.319-2.471-5.328-1.953l-3.635.937v-18.095zm33.917 80.314v-66.506l57.596-33.254v66.506zm-5.001-141.673 13.917 8.035-57.596 33.253-13.917-8.035z" fill="url(#linear-gradient)"/></svg>