<svg id="Layer_1" width="64" height="64" data-name="Layer 1" xmlns="http://www.w3.org/2000/svg" viewBox="0 0 800 800"><defs><style>.cls-1{fill:none;}.cls-2{fill:#fff;}.cls-3{fill:#c1daf2;}.cls-4{fill:#6a7695;}</style></defs><title>Purchase Order Tender Portal</title><rect class="cls-1" width="800" height="800"/><path class="cls-2" d="M138.92,143.29c21.22-5.81,43-8.89,64.52-13.28,46.54-9.5,93.15-18.69,139.74-28,34.31-6.83,68.67-13.46,102.94-20.48,5.76-1.18,8.6.5,10.49,5.76,7.7,21.41,15.78,42.69,23.35,64.14q39,110.58,77.82,221.26c12.26,35,24.14,70.08,36.59,105,2.67,7.48-.8,10.16-6.61,12.48-26.32,10.51-52.67,20.94-78.91,31.65-28.8,11.76-57.51,23.77-86.24,35.74-14.8,6.17-15.72,9.9-15.5,26.57.45,33.1-1.68,66-19.41,95.52-14.34,23.85-35.69,37.41-63,41.91-6.7,1.11-12.74,0-18-4.53-6.39-11-8.51-23.55-12.07-35.51Q251.27,535.72,207.55,390q-35.18-117.83-70.37-235.64C136,150.43,134.38,146.35,138.92,143.29ZM428.47,663.06c3.76,3.26,8.09-.87,12.13-2,1-.28-.23.11.72-.27,78.84-32,157.52-64.39,236.3-96.53,11.33-4.62,23.31-8,33.66-14.86a21.79,21.79,0,0,0,2.08-3.22c10-23.64,9.66-48.37,7.39-73.24-.53-5.79-4.37-4.26-8-2.8q-46.47,18.86-93,37.64Q531,543.58,442.18,579.15c-6,2.37-7.76,5.84-7.38,11.59a133.32,133.32,0,0,1,.44,14.54c-.73,15.83-2,31.63-5.64,47.12C429.54,656.08,425.28,660.28,428.47,663.06Z"/><path class="cls-3" d="M138.92,143.29a10.27,10.27,0,0,0-.6,8.08Q161,226.51,183.41,301.71q35,117.38,70,234.78,25.18,84.36,50.46,168.71c1.17,3.89,1.91,7.9,2.85,11.86-16.47-8.32-25.2-23.7-34-38.61-16.49-28.09-28.4-58.37-39.64-88.86q-20.43-55.4-40.19-111c-13.61-38.28-26.85-76.67-40.22-115q-21.31-61.18-42.55-122.4c-9-26.1-17.79-52.27-26.55-78.46-2.42-7.24-.9-8.83,6.54-10.14C106.46,149.67,122.68,146.39,138.92,143.29ZM409.38,699.21c-1.18,1.72-3.88,3.68-2,6,1.79,2.13,4.37.19,6.38-.55,15.06-5.54,30.06-11.25,45.08-16.9,6.18-2.54,12.37-5,18.57-7.52,4-1.55,8.07-3,12.06-4.67q48.56-20,97.08-40c2.43-1.37,5.3-1.65,7.67-3.16a27,27,0,0,1,4-2.29,707.12,707.12,0,0,0,65-28.59c22.5-11.16,39-28.25,48-52.08a21.22,21.22,0,0,0-4.48.8Q678,561.78,649.32,573.52,544.76,616.21,440.17,658.9c-10.93,4.46-11,4.3-10.57-6.5C423.87,668.44,419.19,684.92,409.38,699.21Z"/><path class="cls-4" d="M440.93,661c.15,0,0,0,0,0ZM253.42,536.49q-35.05-117.37-70-234.78Q161,226.5,138.32,151.37a10.27,10.27,0,0,1,.6-8.08c-4.54,3.06-2.91,7.14-1.74,11.05Q172.27,272.2,207.55,390q43.53,145.78,87.11,291.57c3.56,12,5.68,24.48,12.07,35.5-.94-3.95-1.68-8-2.85-11.85Q278.69,620.83,253.42,536.49ZM731.85,572.1c-.74,1.62-1.55,3.21-2.32,4.81-1.84,4.14-4.73,7.54-7.72,10.85l-20,21.34c-3.49,3.87-8.14,6.26-12.06,9.57-13.79,8.34-29,13.92-43.23,21.25-8.11,3.84-16.14,7.85-24.57,11-13.86,5.74-27.69,11.52-41.57,17.19Q543,683.33,505.65,698.44c-26.42,10.6-52.83,21.21-79.43,31.34-5.38,2.05-11.11,3.29-16.36,5.84-5.35.87-10.61,2-15.48,4.55-17.43,7.67-36.08,11-54.67,13.13-30.38,3.44-53.53-11-72.47-33.36-19.74-23.24-31.52-51-43.79-78.46-15.15-33.87-26.64-69.18-39.58-103.91-10.06-27-18.47-54.67-28.64-81.65-7.44-19.73-14.48-39.64-21.26-59.53-7.67-22.51-16-44.83-23.33-67.47-10.12-31.12-21.1-62-32.17-92.77-8-22.39-14.44-45.34-23.35-67.46-3.34-8.29-6.25-16.73-5.67-26.38.46-7.82,4.14-9.83,10.34-11.06,7.47-1.47,14.88-3.21,22.32-4.84C93.55,124.26,105,122,116.24,119c19.73-2.55,39-7.55,58.51-11.21,14.74-2.77,29.39-6,44.07-9C242.21,93.85,265.55,88.68,289,84c22.94-4.6,46-8.59,69-13.12,18.65-3.69,37.2-7.91,55.84-11.67,12.17-2.46,24.34-5.12,36.65-6.48,5.14-.58,7.5-7,13.44-4.82,2.2.83,5.28-.48,6,3.11,2.71,2.43,5.78,4.52,7.35,8q11,31.31,21.93,62.61C506,141,512.67,160.46,519.5,179.86c13.34,37.91,26.84,75.76,40.09,113.7,15,42.91,29.57,86,44.77,128.81,5.18,14.63,11,29,15.6,43.87,2.95,9.62,4.85,9.86,14.4,6,31.15-12.52,62.34-24.92,93.67-37,6.68-2.57,12.05,1.88,14,7.63,3.18,9.6,8.19,18.75,7.8,29.47-.45,12.54-.83,25.16.05,37.65C751.47,533.08,740.82,552.28,731.85,572.1ZM407.11,584.16c-.22-16.67.7-20.4,15.5-26.57,28.73-12,57.44-24,86.24-35.74,26.24-10.71,52.59-21.14,78.91-31.65,5.81-2.32,9.28-5,6.61-12.48-12.45-34.91-24.33-70-36.59-105Q519,262.06,480,151.47c-7.57-21.45-15.65-42.73-23.35-64.14-1.89-5.26-4.73-6.94-10.49-5.76-34.27,7-68.63,13.65-102.94,20.48-46.59,9.27-93.2,18.46-139.74,28-21.51,4.39-43.3,7.47-64.52,13.28-16.24,3.1-32.46,6.38-48.75,9.23-7.44,1.31-9,2.9-6.54,10.14,8.76,26.19,17.54,52.36,26.55,78.46q21.12,61.25,42.55,122.4c13.37,38.36,26.61,76.75,40.22,115q19.77,55.63,40.19,111c11.24,30.49,23.15,60.77,39.64,88.86,8.75,14.91,17.48,30.29,34,38.61h0c5.24,4.5,11.28,5.64,18,4.53,27.3-4.5,48.65-18.06,63-41.91C405.43,650.19,407.56,617.26,407.11,584.16ZM720.75,472.93c-.53-5.79-4.37-4.26-8-2.8q-46.47,18.86-93,37.64Q531,543.58,442.18,579.15c-6,2.37-7.76,5.84-7.38,11.59a133.32,133.32,0,0,1,.44,14.54c-.73,15.83-2,31.63-5.64,47.12-5.73,16-10.41,32.52-20.22,46.81-1.18,1.72-3.88,3.68-2,6,1.79,2.13,4.37.19,6.38-.55,15.06-5.54,30.06-11.25,45.08-16.9,6.18-2.54,12.37-5,18.57-7.52,4-1.55,8.07-3,12.06-4.67q48.56-20,97.08-40c2.43-1.37,5.3-1.65,7.67-3.16a27,27,0,0,1,4-2.29,707.12,707.12,0,0,0,65-28.59c22.5-11.16,39-28.25,48-52.08h0a21.79,21.79,0,0,0,2.08-3.22C723.41,522.53,723,497.8,720.75,472.93ZM371.29,334.11c-5,1.87-9.94,4.06-15.07,5.55-12.29,3.59-24.15,8.35-35.93,13.25-10.66,4.43-12.39,16.81-3.68,23.45,5.45,4.16,11.23,1.72,16.93.41,15.69-3.61,30.62-9.64,45.87-14.62q33.87-11,67.36-23.14c9.07-3.26,12.22-10.43,9.22-18-2.94-7.4-9.9-9.67-19-7.43-19.15,4.68-37.28,12.56-56.32,17.54C377.68,332.59,374.23,332.55,371.29,334.11Zm6.82,153.36c24.14-8.16,48.39-16,72.51-24.21,14.25-4.85,28.46-9.87,42.42-15.46,8.59-3.44,10.75-9.54,7.5-17.18s-9.13-10.13-17.45-7.42q-23.26,7.59-46.61,15c-24.32,7.68-48.6,15.47-72.42,24.66-6.79,2.62-8.67,7.52-7.55,13.94,1.31,7.47,6.89,12.41,13.43,12.47A29,29,0,0,0,378.11,487.47ZM322,249.34l21.57-6c3.36-1.82,7.25-1.8,10.76-3.08,6.19-1.49,12.5-2.59,18.54-4.55,9.7-3.16,20-4.63,29.1-9.42,6.57-3.46,8.66-9.38,6.31-15.45-2.85-7.36-9.28-11.5-16.11-9.87-9.93,2.39-19.8,5.07-29.67,7.73-21.67,5.84-43.36,11.6-64.95,17.7-9.08,2.57-18.55,4.11-27,8.43-6.92,3.52-9.11,10.66-6.24,17.7,2.74,6.73,8.76,9.45,16.06,7.6,8.66-2.2,17.38-4.15,26.07-6.2C311.33,251.32,317.31,252.48,322,249.34ZM296.59,498.91c-.26,7,6.85,14.72,13.82,14.93,8.85.27,18.66-8.15,18.61-16,0-6.46-7.62-13.14-15.19-13.38C305.83,484.24,296.86,491.74,296.59,498.91ZM204.8,264.73a13.61,13.61,0,0,0,13.79,13.46c9.51-.1,18.45-7.6,18.23-15.28-.21-7.25-7-13.28-15.11-13.32C212.25,249.55,204.87,256.16,204.8,264.73ZM250.08,388c0,6.54,6.66,13.61,13,13.8,10.14.32,18.6-6.74,18.5-15.43-.09-8.26-5.35-13-14.44-13C257.49,373.33,250.12,379.64,250.08,388Z"/></svg>